<svg xmlns="http://www.w3.org/2000/svg" xmlns:xlink="http://www.w3.org/1999/xlink" width="500" zoomAndPan="magnify" viewBox="0 0 375 374.999991" height="500" preserveAspectRatio="xMidYMid meet" version="1.0"><defs><clipPath id="eefff29d3c"><path d="M 175.335938 198.398438 L 187.5 198.398438 L 187.5 210.5625 L 175.335938 210.5625 Z M 175.335938 198.398438 " clip-rule="nonzero"/></clipPath><clipPath id="57268332f8"><path d="M 181.417969 198.398438 C 178.058594 198.398438 175.335938 201.121094 175.335938 204.480469 C 175.335938 207.839844 178.058594 210.5625 181.417969 210.5625 C 184.777344 210.5625 187.5 207.839844 187.5 204.480469 C 187.5 201.121094 184.777344 198.398438 181.417969 198.398438 Z M 181.417969 198.398438 " clip-rule="nonzero"/></clipPath><clipPath id="bd8830509d"><path d="M 13.632812 9.175781 L 350.382812 9.175781 L 350.382812 350 L 13.632812 350 Z M 13.632812 9.175781 " clip-rule="nonzero"/></clipPath></defs><rect x="-37.5" width="450" fill="#ffffff" y="-37.499999" height="449.999989" fill-opacity="1"/><rect x="-37.5" width="450" fill="#ffffff" y="-37.499999" height="449.999989" fill-opacity="1"/><g clip-path="url(#eefff29d3c)"><g clip-path="url(#57268332f8)"><path fill="#cea348" d="M 175.335938 198.398438 L 187.5 198.398438 L 187.5 210.5625 L 175.335938 210.5625 Z M 175.335938 198.398438 " fill-opacity="1" fill-rule="nonzero"/></g></g><g clip-path="url(#bd8830509d)"><path fill="#278d46" d="M 350.371094 177.75 C 350.371094 270.820312 275.003906 346.269531 182.03125 346.269531 C 175.25 346.28125 168.496094 345.882812 161.761719 345.070312 C 155.03125 344.261719 148.371094 343.046875 141.789062 341.425781 C 135.203125 339.804688 128.742188 337.792969 122.402344 335.390625 C 116.0625 332.984375 109.886719 330.207031 103.886719 327.050781 C 103.820312 327.078125 103.753906 327.109375 103.683594 327.136719 L 52.941406 348.246094 C 37.0625 354.851562 21.050781 339.125 27.339844 323.105469 L 45.636719 276.542969 C 40.464844 269.410156 35.882812 261.910156 31.890625 254.054688 C 27.898438 246.195312 24.546875 238.070312 21.835938 229.683594 C 19.121094 221.296875 17.082031 212.746094 15.714844 204.039062 C 14.351562 195.328125 13.675781 186.566406 13.6875 177.75 C 13.6875 84.679688 89.058594 9.230469 182.03125 9.230469 C 275.003906 9.230469 350.371094 84.679688 350.371094 177.75 Z M 350.371094 177.75 " fill-opacity="1" fill-rule="nonzero"/></g><path fill="#ffffff" d="M 328.53125 177.75 C 328.53125 180.152344 328.472656 182.550781 328.351562 184.945312 C 328.234375 187.34375 328.058594 189.738281 327.824219 192.125 C 327.589844 194.515625 327.296875 196.894531 326.945312 199.269531 C 326.59375 201.644531 326.183594 204.007812 325.714844 206.363281 C 325.246094 208.714844 324.722656 211.054688 324.140625 213.386719 C 323.558594 215.714844 322.917969 218.027344 322.222656 220.320312 C 321.527344 222.617188 320.773438 224.898438 319.964844 227.15625 C 319.160156 229.417969 318.296875 231.65625 317.378906 233.871094 C 316.460938 236.089844 315.488281 238.285156 314.464844 240.453125 C 313.4375 242.625 312.363281 244.765625 311.230469 246.882812 C 310.101562 249 308.917969 251.085938 307.6875 253.144531 C 306.453125 255.203125 305.171875 257.230469 303.839844 259.226562 C 302.507812 261.222656 301.128906 263.183594 299.699219 265.113281 C 298.273438 267.039062 296.796875 268.933594 295.277344 270.789062 C 293.753906 272.644531 292.191406 274.460938 290.578125 276.238281 C 288.96875 278.015625 287.316406 279.753906 285.621094 281.449219 C 283.925781 283.148438 282.191406 284.804688 280.414062 286.414062 C 278.636719 288.027344 276.820312 289.59375 274.96875 291.117188 C 273.117188 292.640625 271.226562 294.113281 269.300781 295.542969 C 267.375 296.972656 265.414062 298.355469 263.421875 299.691406 C 261.425781 301.023438 259.402344 302.304688 257.347656 303.539062 C 255.289062 304.773438 253.203125 305.957031 251.089844 307.089844 C 248.976562 308.21875 246.835938 309.296875 244.667969 310.324219 C 242.5 311.351562 240.308594 312.324219 238.09375 313.242188 C 235.878906 314.160156 233.640625 315.023438 231.382812 315.832031 C 229.128906 316.640625 226.851562 317.394531 224.558594 318.089844 C 222.261719 318.785156 219.953125 319.425781 217.628906 320.011719 C 215.300781 320.59375 212.960938 321.117188 210.609375 321.585938 C 208.257812 322.054688 205.898438 322.464844 203.527344 322.816406 C 201.15625 323.171875 198.777344 323.464844 196.390625 323.699219 C 194.003906 323.933594 191.613281 324.109375 189.21875 324.230469 C 186.824219 324.347656 184.429688 324.40625 182.03125 324.40625 C 179.632812 324.40625 177.238281 324.347656 174.84375 324.230469 C 172.449219 324.109375 170.058594 323.933594 167.671875 323.699219 C 165.285156 323.464844 162.90625 323.171875 160.535156 322.816406 C 158.164062 322.464844 155.800781 322.054688 153.449219 321.585938 C 151.097656 321.117188 148.761719 320.59375 146.433594 320.011719 C 144.109375 319.425781 141.796875 318.785156 139.503906 318.089844 C 137.210938 317.394531 134.933594 316.640625 132.675781 315.832031 C 130.417969 315.023438 128.183594 314.160156 125.96875 313.242188 C 123.753906 312.324219 121.5625 311.351562 119.394531 310.324219 C 117.226562 309.296875 115.085938 308.21875 112.972656 307.089844 C 110.855469 305.957031 108.769531 304.773438 106.714844 303.539062 C 104.660156 302.304688 102.632812 301.023438 100.640625 299.691406 C 98.644531 298.355469 96.6875 296.972656 94.761719 295.542969 C 92.835938 294.113281 90.945312 292.640625 89.09375 291.117188 C 87.238281 289.59375 85.425781 288.027344 83.648438 286.414062 C 81.871094 284.804688 80.136719 283.148438 78.441406 281.449219 C 76.746094 279.753906 75.09375 278.015625 73.480469 276.238281 C 71.871094 274.460938 70.304688 272.644531 68.785156 270.789062 C 67.265625 268.933594 65.789062 267.039062 64.359375 265.113281 C 62.933594 263.183594 61.554688 261.222656 60.222656 259.226562 C 58.890625 257.230469 57.605469 255.203125 56.375 253.144531 C 55.140625 251.085938 53.960938 249 52.828125 246.882812 C 51.699219 244.765625 50.621094 242.625 49.597656 240.453125 C 48.570312 238.285156 47.601562 236.089844 46.683594 233.871094 C 45.765625 231.65625 44.902344 229.417969 44.09375 227.15625 C 43.289062 224.898438 42.535156 222.617188 41.839844 220.320312 C 41.144531 218.027344 40.503906 215.714844 39.921875 213.386719 C 39.339844 211.054688 38.8125 208.714844 38.347656 206.363281 C 37.878906 204.007812 37.46875 201.644531 37.117188 199.269531 C 36.765625 196.894531 36.472656 194.515625 36.238281 192.125 C 36 189.738281 35.824219 187.34375 35.707031 184.945312 C 35.589844 182.550781 35.53125 180.152344 35.53125 177.75 C 35.53125 175.351562 35.589844 172.953125 35.707031 170.554688 C 35.824219 168.15625 36 165.765625 36.238281 163.375 C 36.472656 160.988281 36.765625 158.605469 37.117188 156.230469 C 37.46875 153.859375 37.878906 151.492188 38.347656 149.140625 C 38.8125 146.785156 39.339844 144.445312 39.921875 142.117188 C 40.503906 139.789062 41.144531 137.476562 41.839844 135.179688 C 42.535156 132.882812 43.289062 130.605469 44.09375 128.34375 C 44.902344 126.085938 45.765625 123.84375 46.683594 121.628906 C 47.601562 119.410156 48.570312 117.21875 49.597656 115.046875 C 50.621094 112.878906 51.699219 110.734375 52.828125 108.617188 C 53.960938 106.5 55.140625 104.414062 56.375 102.355469 C 57.605469 100.296875 58.890625 98.269531 60.222656 96.273438 C 61.554688 94.277344 62.933594 92.316406 64.359375 90.386719 C 65.789062 88.460938 67.265625 86.570312 68.785156 84.714844 C 70.304688 82.859375 71.871094 81.042969 73.480469 79.261719 C 75.09375 77.484375 76.746094 75.746094 78.441406 74.050781 C 80.136719 72.351562 81.871094 70.699219 83.648438 69.085938 C 85.425781 67.476562 87.238281 65.90625 89.09375 64.386719 C 90.945312 62.863281 92.835938 61.386719 94.761719 59.957031 C 96.6875 58.527344 98.644531 57.144531 100.640625 55.8125 C 102.632812 54.476562 104.660156 53.195312 106.714844 51.960938 C 108.769531 50.726562 110.855469 49.542969 112.972656 48.414062 C 115.085938 47.28125 117.226562 46.203125 119.394531 45.175781 C 121.5625 44.148438 123.753906 43.179688 125.96875 42.257812 C 128.183594 41.339844 130.417969 40.476562 132.675781 39.667969 C 134.933594 38.859375 137.210938 38.109375 139.503906 37.410156 C 141.796875 36.714844 144.109375 36.074219 146.433594 35.492188 C 148.761719 34.90625 151.097656 34.382812 153.449219 33.914062 C 155.800781 33.445312 158.164062 33.035156 160.535156 32.683594 C 162.90625 32.332031 165.285156 32.039062 167.671875 31.800781 C 170.058594 31.566406 172.449219 31.390625 174.84375 31.273438 C 177.238281 31.15625 179.632812 31.097656 182.03125 31.097656 C 184.429688 31.097656 186.824219 31.15625 189.21875 31.273438 C 191.613281 31.390625 194.003906 31.566406 196.390625 31.800781 C 198.777344 32.039062 201.15625 32.332031 203.527344 32.683594 C 205.898438 33.035156 208.257812 33.445312 210.609375 33.914062 C 212.960938 34.382812 215.300781 34.90625 217.628906 35.492188 C 219.953125 36.074219 222.261719 36.714844 224.558594 37.410156 C 226.851562 38.109375 229.128906 38.859375 231.382812 39.667969 C 233.640625 40.476562 235.878906 41.339844 238.09375 42.257812 C 240.308594 43.179688 242.5 44.148438 244.667969 45.175781 C 246.835938 46.203125 248.976562 47.28125 251.089844 48.414062 C 253.203125 49.542969 255.289062 50.726562 257.347656 51.960938 C 259.402344 53.195312 261.425781 54.476562 263.421875 55.8125 C 265.414062 57.144531 267.375 58.527344 269.300781 59.957031 C 271.226562 61.386719 273.117188 62.863281 274.96875 64.386719 C 276.820312 65.90625 278.636719 67.476562 280.414062 69.085938 C 282.191406 70.699219 283.925781 72.351562 285.621094 74.050781 C 287.316406 75.746094 288.96875 77.484375 290.578125 79.261719 C 292.191406 81.042969 293.753906 82.859375 295.277344 84.714844 C 296.796875 86.570312 298.273438 88.460938 299.699219 90.386719 C 301.128906 92.316406 302.507812 94.277344 303.839844 96.273438 C 305.171875 98.269531 306.453125 100.296875 307.6875 102.355469 C 308.917969 104.414062 310.101562 106.5 311.230469 108.617188 C 312.363281 110.734375 313.4375 112.878906 314.464844 115.046875 C 315.488281 117.21875 316.460938 119.410156 317.378906 121.628906 C 318.296875 123.84375 319.160156 126.085938 319.964844 128.34375 C 320.773438 130.605469 321.527344 132.882812 322.222656 135.179688 C 322.917969 137.476562 323.558594 139.789062 324.140625 142.117188 C 324.722656 144.445312 325.246094 146.785156 325.714844 149.140625 C 326.183594 151.492188 326.59375 153.859375 326.945312 156.230469 C 327.296875 158.605469 327.589844 160.988281 327.824219 163.375 C 328.058594 165.765625 328.234375 168.15625 328.351562 170.554688 C 328.472656 172.953125 328.53125 175.351562 328.53125 177.75 Z M 328.53125 177.75 " fill-opacity="1" fill-rule="nonzero"/><path fill="#278d46" d="M 308.011719 177.75 C 308.011719 179.816406 307.960938 181.878906 307.859375 183.9375 C 307.757812 186 307.605469 188.058594 307.40625 190.113281 C 307.203125 192.164062 306.949219 194.214844 306.648438 196.253906 C 306.34375 198.296875 305.992188 200.328125 305.589844 202.355469 C 305.1875 204.378906 304.738281 206.390625 304.234375 208.394531 C 303.734375 210.394531 303.183594 212.382812 302.585938 214.359375 C 301.988281 216.335938 301.339844 218.292969 300.648438 220.238281 C 299.953125 222.179688 299.210938 224.105469 298.421875 226.011719 C 297.632812 227.917969 296.796875 229.804688 295.914062 231.671875 C 295.035156 233.539062 294.109375 235.378906 293.136719 237.199219 C 292.164062 239.019531 291.148438 240.816406 290.085938 242.585938 C 289.027344 244.355469 287.925781 246.101562 286.78125 247.816406 C 285.632812 249.53125 284.449219 251.21875 283.21875 252.875 C 281.992188 254.535156 280.722656 256.160156 279.414062 257.757812 C 278.105469 259.351562 276.761719 260.914062 275.375 262.445312 C 273.992188 263.972656 272.570312 265.46875 271.113281 266.925781 C 269.65625 268.386719 268.160156 269.808594 266.632812 271.195312 C 265.105469 272.582031 263.546875 273.929688 261.953125 275.238281 C 260.359375 276.546875 258.734375 277.816406 257.078125 279.046875 C 255.421875 280.277344 253.734375 281.464844 252.023438 282.609375 C 250.308594 283.757812 248.566406 284.859375 246.796875 285.921875 C 245.027344 286.984375 243.234375 288 241.417969 288.972656 C 239.597656 289.945312 237.757812 290.875 235.894531 291.757812 C 234.03125 292.640625 232.144531 293.476562 230.242188 294.265625 C 228.335938 295.054688 226.414062 295.796875 224.472656 296.492188 C 222.53125 297.1875 220.574219 297.835938 218.601562 298.433594 C 216.628906 299.035156 214.640625 299.582031 212.640625 300.085938 C 210.640625 300.585938 208.628906 301.039062 206.609375 301.441406 C 204.585938 301.84375 202.554688 302.195312 200.515625 302.5 C 198.476562 302.800781 196.429688 303.054688 194.378906 303.257812 C 192.328125 303.460938 190.269531 303.613281 188.210938 303.714844 C 186.152344 303.8125 184.09375 303.863281 182.03125 303.863281 C 179.96875 303.863281 177.910156 303.8125 175.847656 303.710938 C 173.789062 303.613281 171.734375 303.460938 169.683594 303.257812 C 167.628906 303.054688 165.585938 302.800781 163.546875 302.5 C 161.507812 302.195312 159.476562 301.84375 157.453125 301.441406 C 155.429688 301.039062 153.417969 300.585938 151.417969 300.085938 C 149.417969 299.582031 147.433594 299.035156 145.460938 298.433594 C 143.488281 297.835938 141.53125 297.1875 139.589844 296.492188 C 137.648438 295.796875 135.726562 295.054688 133.820312 294.265625 C 131.914062 293.476562 130.03125 292.640625 128.167969 291.757812 C 126.304688 290.875 124.460938 289.945312 122.644531 288.972656 C 120.824219 288 119.03125 286.984375 117.261719 285.921875 C 115.496094 284.859375 113.753906 283.757812 112.039062 282.609375 C 110.324219 281.464844 108.640625 280.277344 106.984375 279.046875 C 105.328125 277.816406 103.703125 276.546875 102.109375 275.238281 C 100.515625 273.929688 98.953125 272.582031 97.425781 271.195312 C 95.898438 269.808594 94.40625 268.386719 92.949219 266.925781 C 91.492188 265.46875 90.070312 263.972656 88.683594 262.445312 C 87.300781 260.914062 85.953125 259.351562 84.644531 257.757812 C 83.339844 256.160156 82.070312 254.535156 80.84375 252.875 C 79.613281 251.21875 78.425781 249.53125 77.28125 247.816406 C 76.136719 246.101562 75.035156 244.355469 73.972656 242.585938 C 72.914062 240.816406 71.898438 239.019531 70.925781 237.199219 C 69.953125 235.378906 69.027344 233.539062 68.144531 231.671875 C 67.265625 229.804688 66.429688 227.917969 65.640625 226.011719 C 64.851562 224.105469 64.109375 222.179688 63.414062 220.238281 C 62.71875 218.292969 62.074219 216.335938 61.476562 214.359375 C 60.875 212.382812 60.328125 210.394531 59.824219 208.394531 C 59.324219 206.390625 58.871094 204.378906 58.46875 202.355469 C 58.070312 200.328125 57.714844 198.296875 57.414062 196.253906 C 57.109375 194.214844 56.859375 192.164062 56.65625 190.113281 C 56.453125 188.058594 56.304688 186 56.203125 183.9375 C 56.101562 181.878906 56.050781 179.816406 56.050781 177.75 C 56.050781 175.6875 56.101562 173.625 56.203125 171.5625 C 56.304688 169.5 56.453125 167.441406 56.65625 165.390625 C 56.859375 163.335938 57.109375 161.289062 57.414062 159.246094 C 57.714844 157.203125 58.070312 155.171875 58.46875 153.148438 C 58.871094 151.121094 59.324219 149.109375 59.824219 147.105469 C 60.328125 145.105469 60.875 143.117188 61.476562 141.140625 C 62.074219 139.167969 62.71875 137.207031 63.414062 135.265625 C 64.109375 133.320312 64.851562 131.394531 65.640625 129.488281 C 66.429688 127.582031 67.265625 125.695312 68.144531 123.828125 C 69.027344 121.964844 69.953125 120.121094 70.925781 118.300781 C 71.898438 116.480469 72.914062 114.683594 73.972656 112.914062 C 75.035156 111.144531 76.136719 109.402344 77.28125 107.683594 C 78.425781 105.96875 79.613281 104.28125 80.84375 102.625 C 82.070312 100.964844 83.339844 99.339844 84.644531 97.746094 C 85.953125 96.148438 87.300781 94.585938 88.683594 93.058594 C 90.070312 91.527344 91.492188 90.035156 92.949219 88.574219 C 94.40625 87.113281 95.898438 85.691406 97.425781 84.304688 C 98.953125 82.921875 100.515625 81.574219 102.109375 80.261719 C 103.703125 78.953125 105.328125 77.683594 106.984375 76.453125 C 108.640625 75.226562 110.324219 74.035156 112.039062 72.890625 C 113.753906 71.742188 115.496094 70.640625 117.261719 69.578125 C 119.03125 68.519531 120.824219 67.5 122.644531 66.527344 C 124.460938 65.554688 126.304688 64.628906 128.167969 63.746094 C 130.03125 62.863281 131.914062 62.027344 133.820312 61.234375 C 135.726562 60.445312 137.648438 59.703125 139.589844 59.007812 C 141.53125 58.3125 143.488281 57.664062 145.460938 57.066406 C 147.433594 56.46875 149.417969 55.917969 151.417969 55.414062 C 153.417969 54.914062 155.429688 54.460938 157.453125 54.058594 C 159.476562 53.65625 161.507812 53.304688 163.546875 53 C 165.585938 52.699219 167.628906 52.445312 169.683594 52.242188 C 171.734375 52.042969 173.789062 51.890625 175.847656 51.789062 C 177.910156 51.6875 179.96875 51.636719 182.03125 51.636719 C 184.09375 51.636719 186.152344 51.6875 188.210938 51.789062 C 190.269531 51.890625 192.328125 52.042969 194.378906 52.242188 C 196.429688 52.445312 198.476562 52.699219 200.515625 53 C 202.554688 53.304688 204.585938 53.65625 206.609375 54.058594 C 208.628906 54.460938 210.640625 54.914062 212.640625 55.414062 C 214.640625 55.917969 216.628906 56.46875 218.601562 57.066406 C 220.574219 57.664062 222.53125 58.3125 224.472656 59.007812 C 226.414062 59.703125 228.335938 60.445312 230.242188 61.234375 C 232.144531 62.027344 234.03125 62.863281 235.894531 63.746094 C 237.757812 64.628906 239.597656 65.554688 241.417969 66.527344 C 243.234375 67.5 245.027344 68.519531 246.796875 69.578125 C 248.566406 70.640625 250.308594 71.742188 252.023438 72.890625 C 253.734375 74.035156 255.421875 75.226562 257.078125 76.453125 C 258.734375 77.683594 260.359375 78.953125 261.953125 80.261719 C 263.546875 81.574219 265.105469 82.921875 266.632812 84.304688 C 268.160156 85.691406 269.65625 87.113281 271.113281 88.574219 C 272.570312 90.035156 273.992188 91.527344 275.375 93.058594 C 276.761719 94.585938 278.105469 96.148438 279.414062 97.746094 C 280.722656 99.339844 281.992188 100.964844 283.21875 102.625 C 284.449219 104.28125 285.632812 105.96875 286.78125 107.683594 C 287.925781 109.402344 289.027344 111.144531 290.085938 112.914062 C 291.148438 114.683594 292.164062 116.480469 293.136719 118.300781 C 294.109375 120.121094 295.035156 121.964844 295.914062 123.828125 C 296.796875 125.695312 297.632812 127.582031 298.421875 129.488281 C 299.210938 131.394531 299.953125 133.320312 300.648438 135.265625 C 301.339844 137.207031 301.988281 139.167969 302.585938 141.140625 C 303.183594 143.117188 303.734375 145.105469 304.234375 147.105469 C 304.738281 149.109375 305.1875 151.121094 305.589844 153.148438 C 305.992188 155.171875 306.34375 157.203125 306.648438 159.246094 C 306.949219 161.289062 307.203125 163.335938 307.40625 165.390625 C 307.605469 167.441406 307.757812 169.5 307.859375 171.5625 C 307.960938 173.625 308.011719 175.6875 308.011719 177.75 Z M 308.011719 177.75 " fill-opacity="1" fill-rule="nonzero"/><path fill="#ffffff" d="M 165.855469 136.554688 L 160.949219 115.832031 C 160.8125 115.242188 160.640625 114.660156 160.441406 114.089844 C 160.238281 113.515625 160.011719 112.957031 159.75 112.410156 C 159.492188 111.863281 159.203125 111.328125 158.886719 110.8125 C 158.570312 110.292969 158.230469 109.792969 157.863281 109.3125 C 157.492188 108.832031 157.101562 108.371094 156.683594 107.929688 C 156.265625 107.492188 155.828125 107.074219 155.367188 106.679688 C 154.90625 106.289062 154.429688 105.917969 153.929688 105.574219 C 153.429688 105.234375 152.914062 104.917969 152.378906 104.628906 C 151.847656 104.339844 151.300781 104.078125 150.742188 103.847656 C 150.183594 103.617188 149.613281 103.417969 149.03125 103.246094 C 148.449219 103.074219 147.859375 102.933594 147.265625 102.824219 C 146.667969 102.714844 146.070312 102.640625 145.464844 102.59375 C 144.863281 102.546875 144.257812 102.535156 143.652344 102.550781 C 143.046875 102.570312 142.445312 102.621094 141.84375 102.703125 C 141.242188 102.785156 140.648438 102.898438 140.0625 103.042969 C 139.472656 103.183594 138.894531 103.359375 138.324219 103.566406 L 127.015625 107.640625 C 126.101562 107.96875 125.222656 108.375 124.375 108.855469 C 123.53125 109.332031 122.730469 109.878906 121.976562 110.492188 C 121.222656 111.109375 120.527344 111.78125 119.886719 112.511719 C 119.246094 113.246094 118.671875 114.027344 118.164062 114.855469 C 117.652344 115.683594 117.21875 116.550781 116.855469 117.453125 C 116.492188 118.355469 116.210938 119.285156 116.003906 120.234375 C 115.796875 121.183594 115.671875 122.148438 115.628906 123.117188 C 115.585938 124.089844 115.625 125.058594 115.742188 126.023438 C 119.683594 158.074219 137.820312 235.605469 221.234375 252.640625 C 222.058594 252.808594 222.890625 252.914062 223.726562 252.960938 C 224.566406 253.007812 225.40625 252.996094 226.242188 252.917969 C 227.078125 252.84375 227.90625 252.707031 228.722656 252.511719 C 229.539062 252.3125 230.335938 252.058594 231.117188 251.746094 C 231.898438 251.433594 232.652344 251.0625 233.375 250.640625 C 234.101562 250.214844 234.792969 249.742188 235.449219 249.21875 C 236.109375 248.691406 236.722656 248.125 237.296875 247.507812 C 237.871094 246.894531 238.398438 246.242188 238.875 245.550781 L 245.363281 236.164062 C 245.6875 235.699219 245.984375 235.21875 246.257812 234.726562 C 246.53125 234.230469 246.78125 233.726562 247.007812 233.207031 C 247.230469 232.6875 247.429688 232.160156 247.605469 231.621094 C 247.777344 231.082031 247.921875 230.535156 248.042969 229.984375 C 248.160156 229.429688 248.253906 228.875 248.316406 228.3125 C 248.382812 227.75 248.417969 227.1875 248.429688 226.621094 C 248.4375 226.054688 248.417969 225.492188 248.375 224.925781 C 248.328125 224.363281 248.253906 223.804688 248.152344 223.246094 C 248.050781 222.691406 247.925781 222.140625 247.769531 221.597656 C 247.613281 221.054688 247.433594 220.519531 247.226562 219.992188 C 247.015625 219.464844 246.785156 218.953125 246.527344 218.449219 C 246.269531 217.945312 245.988281 217.457031 245.679688 216.980469 C 245.375 216.503906 245.046875 216.046875 244.695312 215.601562 C 244.34375 215.160156 243.972656 214.734375 243.578125 214.328125 C 243.1875 213.921875 242.773438 213.535156 242.34375 213.171875 C 241.914062 212.804688 241.464844 212.460938 241 212.136719 L 240.890625 212.0625 L 226.628906 202.34375 C 225.863281 201.820312 225.058594 201.363281 224.21875 200.96875 C 223.375 200.578125 222.511719 200.253906 221.617188 200 C 220.722656 199.746094 219.816406 199.566406 218.894531 199.460938 C 217.972656 199.355469 217.050781 199.324219 216.121094 199.367188 C 215.195312 199.410156 214.277344 199.527344 213.371094 199.71875 C 212.460938 199.910156 211.574219 200.171875 210.710938 200.507812 C 209.84375 200.839844 209.011719 201.242188 208.210938 201.710938 C 207.410156 202.179688 206.652344 202.710938 205.9375 203.304688 C 205.226562 203.890625 204.472656 204.421875 203.679688 204.886719 C 202.882812 205.355469 202.054688 205.757812 201.195312 206.09375 C 200.335938 206.425781 199.457031 206.691406 198.554688 206.882812 C 197.652344 207.078125 196.742188 207.195312 195.820312 207.242188 C 194.898438 207.289062 193.980469 207.261719 193.0625 207.160156 C 192.144531 207.058594 191.242188 206.886719 190.355469 206.640625 C 189.464844 206.394531 188.601562 206.078125 187.765625 205.691406 C 186.925781 205.304688 186.125 204.855469 185.359375 204.339844 C 176.683594 198.492188 164.941406 188.789062 157.3125 175.335938 C 156.886719 174.585938 156.515625 173.808594 156.207031 173.003906 C 155.894531 172.199219 155.644531 171.375 155.457031 170.53125 C 155.269531 169.691406 155.144531 168.839844 155.082031 167.976562 C 155.023438 167.117188 155.027344 166.253906 155.09375 165.394531 C 155.160156 164.535156 155.292969 163.683594 155.488281 162.84375 C 155.683594 162 155.9375 161.179688 156.253906 160.375 C 156.574219 159.574219 156.949219 158.800781 157.382812 158.050781 C 157.816406 157.304688 158.300781 156.597656 158.839844 155.921875 L 162.511719 151.355469 C 163.335938 150.332031 164.03125 149.226562 164.601562 148.042969 C 165.175781 146.859375 165.605469 145.625 165.894531 144.34375 C 166.183594 143.058594 166.324219 141.761719 166.320312 140.445312 C 166.3125 139.128906 166.15625 137.832031 165.855469 136.554688 Z M 165.855469 136.554688 " fill-opacity="1" fill-rule="nonzero"/></svg>